<?xml version="1.0" encoding="UTF-8"?>
<svg version="1.1" xmlns="http://www.w3.org/2000/svg" width="665" height="250">
<path d="M0 0 C7.17156168 -0.07609679 14.34301914 -0.12861962 21.51489258 -0.16479492 C23.95438528 -0.17987654 26.3938509 -0.20034469 28.83325195 -0.22631836 C32.34072559 -0.26272812 35.84784054 -0.27973289 39.35546875 -0.29296875 C40.44522507 -0.30845261 41.53498138 -0.32393646 42.65776062 -0.33988953 C52.20144127 -0.34200824 52.20144127 -0.34200824 56 3 C58 6 58 6 57.78515625 9.25 C55.65136718 19.44123139 51.78988169 28.06571439 43 34 C43.74056641 34.62455078 43.74056641 34.62455078 44.49609375 35.26171875 C46 37 46 37 46.0625 40.8125 C44.57957623 50.45150449 40.71140208 59.70276304 32.9296875 65.765625 C28.98651759 68.2879766 26.33175524 69.24921381 21.58886719 69.22705078 C20.50804871 69.22689972 19.42723022 69.22674866 18.31365967 69.22659302 C17.15312073 69.21627045 15.99258179 69.20594788 14.796875 69.1953125 C13.00748505 69.19106766 13.00748505 69.19106766 11.1819458 69.18673706 C7.37119524 69.17554053 3.56067955 69.15043653 -0.25 69.125 C-2.83332994 69.11496954 -5.41666356 69.1058438 -8 69.09765625 C-14.33341349 69.07560289 -20.66668997 69.04213035 -27 69 C-24.80018419 60.96755334 -21.85123149 53.33137427 -18.7109375 45.625 C-18.20158754 44.36627826 -17.69261203 43.10740493 -17.18399048 41.84838867 C-15.85679096 38.56625581 -14.52412462 35.28636989 -13.19036865 32.00689697 C-12.098575 29.31962493 -11.01078798 26.63073981 -9.92317772 23.94177246 C-7.67872504 18.39307917 -5.43126251 12.84559616 -3.17724609 7.30078125 C-2.58126114 5.83378784 -2.58126114 5.83378784 -1.97323608 4.3371582 C-1.362657 2.87089536 -0.71031451 1.42062903 0 0 Z M12 14 C11.3490741 15.24735567 10.70448331 16.49801832 10.0625 17.75 C9.52302734 18.79414062 9.52302734 18.79414062 8.97265625 19.859375 C8.04441818 21.90224433 7.46833422 23.81115376 7 26 C11.0830942 26.11614929 15.16576377 26.18723457 19.25 26.25 C20.98830078 26.30027344 20.98830078 26.30027344 22.76171875 26.3515625 C23.87675781 26.36445312 24.99179688 26.37734375 26.140625 26.390625 C27.16704102 26.41157227 28.19345703 26.43251953 29.25097656 26.45410156 C32.74657199 25.87667639 33.85456869 24.76960129 36 22 C37.27765265 18.36456099 37.27765265 18.36456099 38 15 C36.95128747 13.72694444 36.95128747 13.72694444 34.59155273 13.88647461 C33.02836304 13.89432983 33.02836304 13.89432983 31.43359375 13.90234375 C30.30888672 13.90556641 29.18417969 13.90878906 28.02539062 13.91210938 C26.84138672 13.92048828 25.65738281 13.92886719 24.4375 13.9375 C23.24962891 13.94201172 22.06175781 13.94652344 20.83789062 13.95117188 C17.89187774 13.96300325 14.94596319 13.97948713 12 14 Z M1 40 C0.16013916 41.93467942 -0.67168027 43.87285129 -1.5 45.8125 C-1.9640625 46.89144531 -2.428125 47.97039062 -2.90625 49.08203125 C-4.17549303 51.94882024 -4.17549303 51.94882024 -4 55 C0.0830942 55.11614929 4.16576377 55.18723457 8.25 55.25 C9.98830078 55.30027344 9.98830078 55.30027344 11.76171875 55.3515625 C12.87675781 55.36445313 13.99179688 55.37734375 15.140625 55.390625 C16.16704102 55.41157227 17.19345703 55.43251953 18.25097656 55.45410156 C21.71957338 54.88113619 22.82443695 53.69809441 25 51 C27.00773481 47.27134963 27.15985203 45.05948212 26 41 C22.64908229 40.24636948 19.56890188 39.88020063 16.13671875 39.90234375 C15.25048828 39.90556641 14.36425781 39.90878906 13.45117188 39.91210938 C12.53916016 39.92048828 11.62714844 39.92886719 10.6875 39.9375 C9.75615234 39.94201172 8.82480469 39.94652344 7.86523438 39.95117188 C5.57675627 39.96290766 3.28841192 39.97932637 1 40 Z " fill="#118AFA" transform="translate(52,101)"/>
<path d="M0 0 C0.66 0 1.32 0 2 0 C1.36906223 4.47843146 -0.37816105 8.19701085 -2.37890625 12.19921875 C-2.71043198 12.87547806 -3.0419577 13.55173737 -3.38352966 14.24848938 C-4.43770262 16.3975768 -5.49941944 18.54280657 -6.5625 20.6875 C-7.62847252 22.84321871 -8.69270138 24.99972842 -9.75218201 27.15864563 C-10.41038793 28.49945108 -11.07243705 29.838378 -11.73866272 31.17521667 C-13.44328262 34.43268793 -13.44328262 34.43268793 -14 38 C-13.030625 38.40089844 -12.06125 38.80179688 -11.0625 39.21484375 C10.74449362 48.39514594 37.75302657 61.68824651 48.3203125 84.1328125 C49.18092475 86.49702315 49.3112241 88.51020724 49 91 C49.886875 91.28875 50.77375 91.5775 51.6875 91.875 C54.50382424 92.83148748 57.25083156 93.86798946 60 95 C59.67 95.66 59.34 96.32 59 97 C55.7 95.68 52.4 94.36 49 93 C48.67 94.65 48.34 96.3 48 98 C44.7 98 41.4 98 38 98 C39.32 95.36 40.64 92.72 42 90 C39.94446899 89.42113037 39.94446899 89.42113037 37.84741211 88.83056641 C31.22493361 86.84056163 24.85519021 84.28396044 18.44140625 81.7109375 C17.16266745 81.20156272 15.88376933 80.6925877 14.60472107 80.18399048 C11.26888653 78.85644234 7.93501886 77.52402767 4.60162354 76.19036865 C-0.11545408 74.30418709 -4.83525012 72.42481515 -9.55470276 70.54458618 C-12.0616881 69.54577949 -14.56783221 68.54494334 -17.07359314 67.5430603 C-18.20229324 67.09234161 -19.33099335 66.64162292 -20.49389648 66.17724609 C-21.48743637 65.77992279 -22.48097626 65.38259949 -23.50462341 64.97323608 C-25.31789492 64.2660317 -27.15357577 63.61547474 -29 63 C-29.39457397 64.0677063 -29.39457397 64.0677063 -29.79711914 65.15698242 C-31.0563264 68.13312785 -32.55196098 70.73710739 -34.24609375 73.48828125 C-34.90891357 74.57085205 -35.5717334 75.65342285 -36.25463867 76.76879883 C-36.6093222 77.34449615 -36.96400574 77.92019348 -37.32943726 78.51333618 C-39.25442981 81.63895067 -41.16614445 84.77266454 -43.078125 87.90625 C-43.47968307 88.56393875 -43.88124115 89.2216275 -44.29496765 89.89924622 C-48.82487987 97.33135377 -53.25616498 104.82136425 -57.6875 112.3125 C-70.54442036 134.02671854 -83.75593749 155.52054805 -97 177 C-97.33 176.34 -97.66 175.68 -98 175 C-96.84326431 172.38933445 -95.62139383 169.90142999 -94.29296875 167.37890625 C-93.89689926 166.61184357 -93.50082977 165.84478088 -93.09275818 165.05447388 C-91.79870097 162.55307243 -90.49332644 160.05777473 -89.1875 157.5625 C-88.29738961 155.84838741 -87.40790395 154.13395026 -86.51904297 152.41918945 C-84.38413563 148.30531237 -82.24023505 144.19621741 -80.09210205 140.0892334 C-78.71229735 137.44961372 -77.33856208 134.80685372 -75.96484375 132.1640625 C-70.57826224 121.83555417 -65.01324903 111.60298185 -59.453125 101.3671875 C-55.19758958 93.52946087 -50.97595764 85.67353763 -46.75683594 77.81616211 C-43.55016148 71.85142751 -40.3094994 65.90835291 -37 60 C-47.93142005 54.47455026 -58.93277593 49.11271348 -70.00292969 43.87084961 C-72.52711265 42.67465145 -75.04873013 41.47315316 -77.5703125 40.27148438 C-79.20297265 39.49707455 -80.83577979 38.72297454 -82.46875 37.94921875 C-83.20847046 37.59607101 -83.94819092 37.24292328 -84.71032715 36.8790741 C-93.00527342 32.468489 -93.00527342 32.468489 -101.875 31.5 C-104.67259341 33.47477182 -105.20301187 34.66714054 -106 38 C-106.81957197 45.02490262 -105.20323284 49.35413217 -101 55 C-90.13346343 67.87755146 -75.86607759 76.39036633 -61 84 C-61.495 85.485 -61.495 85.485 -62 87 C-81.20302605 77.7237578 -103.80584464 66.44057753 -113 46 C-114.20643566 42.38069302 -114.32268559 39.80768995 -114 36 C-112.04301704 32.4909271 -109.85698502 29.78330919 -107 27 C-107.88558594 26.5875 -108.77117187 26.175 -109.68359375 25.75 C-119.46683899 21.19018254 -129.23610866 16.60109934 -139 12 C-135.58335508 10.56831384 -133.32550879 11.36851297 -129.97427368 12.69064331 C-129.33565399 12.95515289 -128.6970343 13.21966248 -128.0390625 13.4921875 C-127.37087494 13.75758331 -126.70268738 14.02297913 -126.01425171 14.29641724 C-123.88014602 15.14550886 -121.75235128 16.00913915 -119.625 16.875 C-117.50415642 17.73192111 -115.38212504 18.58547871 -113.25717163 19.43215942 C-111.93675912 19.95888374 -110.61874255 20.4916685 -109.30361938 21.03146362 C-103.54702902 23.33873933 -99.06579268 24.44627479 -93 23 C-70.84694703 21.31699011 -50.23680588 25.92788298 -29.19189453 32.33691406 C-26.13786891 33.26080954 -23.07038315 34.13219319 -20 35 C-19.75000244 34.30994873 -19.50000488 33.61989746 -19.24243164 32.90893555 C-17.81522584 29.56738376 -16.02485017 26.53997987 -14.12109375 23.45703125 C-13.74896255 22.84736008 -13.37683136 22.2376889 -12.99342346 21.60954285 C-11.81169251 19.67497979 -10.62480453 17.74364636 -9.4375 15.8125 C-8.2476864 13.87001095 -7.05894308 11.92687304 -5.87086487 9.98332214 C-5.13312213 8.77725042 -4.39417953 7.57191165 -3.65391541 6.36738586 C-2.36845533 4.27146255 -1.10017903 2.20035807 0 0 Z M-92 29 C-86.49061629 31.15061651 -80.98117301 33.30108033 -75.47167969 35.45141602 C-73.60610429 36.17956641 -71.74054385 36.90775512 -69.875 37.63598633 C-68.9778125 37.9862085 -68.080625 38.33643066 -67.15625 38.69726562 C-66.25920349 39.04767914 -65.36215698 39.39809265 -64.43792725 39.75912476 C-62.63033184 40.46398646 -60.82193921 41.16680713 -59.01275635 41.86758423 C-54.57960788 43.58706444 -50.16388617 45.33600464 -45.77246094 47.15966797 C-44.53839005 47.66372414 -44.53839005 47.66372414 -43.27938843 48.17796326 C-41.7315458 48.81140246 -40.18853934 49.45683719 -38.65151978 50.11610413 C-34.72471618 51.76084525 -34.72471618 51.76084525 -30.61279297 51.32250977 C-28.38812469 49.49825483 -27.18189962 47.48774479 -25.75 45 C-25.22921875 44.113125 -24.7084375 43.22625 -24.171875 42.3125 C-22.84932375 40.13474537 -22.84932375 40.13474537 -23 38 C-57.5544098 24.89254268 -57.5544098 24.89254268 -92 29 Z M-17 41 C-19.31 45.62 -21.62 50.24 -24 55 C-21.15284769 57.13536423 -18.97329103 58.63124916 -15.8684082 60.14135742 C-15.06268875 60.53574509 -14.2569693 60.93013275 -13.42683411 61.33647156 C-12.56023666 61.75524063 -11.69363922 62.1740097 -10.80078125 62.60546875 C-9.43810371 63.26981682 -9.43810371 63.26981682 -8.04789734 63.94758606 C-5.13800583 65.36485061 -2.22524671 66.77611441 0.6875 68.1875 C2.59718193 69.11747574 4.5066889 70.04781084 6.41601562 70.97851562 C11.93721533 73.66651106 17.46604177 76.33837808 23 79 C23.8586969 79.41332581 24.7173938 79.82665161 25.60211182 80.25250244 C27.98891138 81.3985812 30.37851371 82.53853317 32.76953125 83.67578125 C33.47760422 84.01570602 34.18567719 84.3556308 34.91520691 84.70585632 C38.30844496 86.42276333 38.30844496 86.42276333 42 87 C38.76580823 72.07296106 24.861019 62.92213285 12.87890625 54.9140625 C7.10146963 51.222726 1.19343515 47.98572243 -5 45.0625 C-5.62302002 44.76778809 -6.24604004 44.47307617 -6.88793945 44.16943359 C-10.34606774 42.5902639 -13.2082809 41.75834382 -17 41 Z " fill="#108AFA" transform="translate(353,14)"/>
<path d="M0 0 C1.14113754 -0.00855011 1.14113754 -0.00855011 2.30532837 -0.01727295 C3.91415012 -0.02671248 5.52299112 -0.03325278 7.13183594 -0.03710938 C9.58563165 -0.04681201 12.03858839 -0.0778428 14.4921875 -0.109375 C16.05728671 -0.11590585 17.62239189 -0.121156 19.1875 -0.125 C20.28304703 -0.1435202 20.28304703 -0.1435202 21.40072632 -0.16241455 C25.81321942 -0.14324127 28.84065213 0.26780179 32.2265625 3.203125 C34.32216646 10.22372366 31.01220634 17.47122558 28.2265625 23.828125 C26.9065625 26.921875 25.5865625 30.015625 24.2265625 33.203125 C11.6865625 33.203125 -0.8534375 33.203125 -13.7734375 33.203125 C-14.4334375 35.183125 -15.0934375 37.163125 -15.7734375 39.203125 C2.5415625 39.698125 2.5415625 39.698125 21.2265625 40.203125 C20.28266397 44.92261766 18.96219911 48.75083978 17.2265625 53.203125 C12.12240556 53.39691981 7.01801561 53.5753813 1.9128418 53.74023438 C0.17962612 53.79829315 -1.5534595 53.86039146 -3.28637695 53.92675781 C-5.790937 54.02194984 -8.29561977 54.10214571 -10.80078125 54.1796875 C-11.56365952 54.21188385 -12.32653778 54.2440802 -13.11253357 54.2772522 C-19.51219693 54.4516812 -26.17350372 54.18402693 -31.3984375 50.203125 C-33.75819954 45.05455328 -32.56619697 39.76196882 -30.92236328 34.45605469 C-29.85809615 31.62967313 -28.7130813 28.85396053 -27.5234375 26.078125 C-27.14058594 25.14097656 -26.75773438 24.20382813 -26.36328125 23.23828125 C-23.40917379 16.17411124 -20.25180212 8.68454672 -14.1484375 3.765625 C-13.57867188 3.29253906 -13.00890625 2.81945312 -12.421875 2.33203125 C-8.57686062 -0.30116581 -4.46351981 0.02582935 0 0 Z M-6.7734375 16.203125 C-7.4334375 17.853125 -8.0934375 19.503125 -8.7734375 21.203125 C-1.8434375 21.203125 5.0865625 21.203125 12.2265625 21.203125 C12.5565625 18.893125 12.8865625 16.583125 13.2265625 14.203125 C10.42549238 12.80258994 8.03764569 12.9955746 4.9140625 12.953125 C3.78355469 12.92734375 2.65304687 12.9015625 1.48828125 12.875 C-2.15969528 13.24198207 -3.93930976 13.89569356 -6.7734375 16.203125 Z " fill="#2A2A2A" transform="translate(597.7734375,116.796875)"/>
<path d="M0 0 C1.14113754 -0.00855011 1.14113754 -0.00855011 2.30532837 -0.01727295 C3.91415012 -0.02671248 5.52299112 -0.03325278 7.13183594 -0.03710938 C9.58563165 -0.04681201 12.03858839 -0.0778428 14.4921875 -0.109375 C16.05728671 -0.11590585 17.62239189 -0.121156 19.1875 -0.125 C20.28304703 -0.1435202 20.28304703 -0.1435202 21.40072632 -0.16241455 C25.81321942 -0.14324127 28.84065213 0.26780179 32.2265625 3.203125 C34.32216646 10.22372366 31.01220634 17.47122558 28.2265625 23.828125 C26.9065625 26.921875 25.5865625 30.015625 24.2265625 33.203125 C11.6865625 33.203125 -0.8534375 33.203125 -13.7734375 33.203125 C-14.4334375 35.183125 -15.0934375 37.163125 -15.7734375 39.203125 C2.5415625 39.698125 2.5415625 39.698125 21.2265625 40.203125 C20.45655023 44.05318636 19.9004483 46.21089073 18.1640625 49.515625 C17.80183594 50.21300781 17.43960938 50.91039062 17.06640625 51.62890625 C16.78925781 52.14839844 16.51210937 52.66789062 16.2265625 53.203125 C11.26483432 53.39698142 6.30286619 53.57543123 1.34008789 53.74023438 C-0.34462981 53.79827805 -2.02921336 53.8603739 -3.71362305 53.92675781 C-6.14867677 54.02199547 -8.58385647 54.10216841 -11.01953125 54.1796875 C-11.76053574 54.21188385 -12.50154022 54.2440802 -13.26499939 54.2772522 C-19.61236745 54.45506603 -26.22129985 54.14761083 -31.3984375 50.203125 C-33.75819954 45.05455328 -32.56619697 39.76196882 -30.92236328 34.45605469 C-29.85809615 31.62967313 -28.7130813 28.85396053 -27.5234375 26.078125 C-27.14058594 25.14097656 -26.75773438 24.20382813 -26.36328125 23.23828125 C-23.40917379 16.17411124 -20.25180212 8.68454672 -14.1484375 3.765625 C-13.57867187 3.29253906 -13.00890625 2.81945312 -12.421875 2.33203125 C-8.57686062 -0.30116581 -4.46351981 0.02582935 0 0 Z M-6.7734375 16.203125 C-7.4334375 17.853125 -8.0934375 19.503125 -8.7734375 21.203125 C-1.8434375 21.203125 5.0865625 21.203125 12.2265625 21.203125 C12.5565625 18.893125 12.8865625 16.583125 13.2265625 14.203125 C10.42549238 12.80258994 8.03764569 12.9955746 4.9140625 12.953125 C3.78355469 12.92734375 2.65304688 12.9015625 1.48828125 12.875 C-2.15969528 13.24198207 -3.93930976 13.89569356 -6.7734375 16.203125 Z " fill="#118AFA" transform="translate(222.7734375,116.796875)"/>
<path d="M0 0 C1.48831242 0.00667405 2.97660807 0.01863442 4.46484375 0.03515625 C5.22345703 0.03966797 5.98207031 0.04417969 6.76367188 0.04882812 C8.64326246 0.06064945 10.52281274 0.07858547 12.40234375 0.09765625 C11.74731093 4.15584808 10.45675254 7.63736907 8.83984375 11.41015625 C8.38480469 12.47878906 7.92976563 13.54742187 7.4609375 14.6484375 C6.93693359 15.86080078 6.93693359 15.86080078 6.40234375 17.09765625 C7.64322754 17.07409058 7.64322754 17.07409058 8.90917969 17.05004883 C12.65683152 16.98769321 16.4043742 16.94866279 20.15234375 16.91015625 C21.45429688 16.88501953 22.75625 16.85988281 24.09765625 16.83398438 C25.97324219 16.81948242 25.97324219 16.81948242 27.88671875 16.8046875 C29.03881836 16.78897705 30.19091797 16.7732666 31.37792969 16.75708008 C34.78203901 17.14041334 36.12653191 17.5449204 38.40234375 20.09765625 C41.5107083 30.44513212 33.94127845 43.19602182 30.02856445 52.84082031 C29.19972563 54.88494127 28.3796216 56.93241813 27.56054688 58.98046875 C23.55043289 68.94956711 23.55043289 68.94956711 22.40234375 70.09765625 C19.70579521 70.17085246 17.03542917 70.19008162 14.33984375 70.16015625 C13.58123047 70.15564453 12.82261719 70.15113281 12.04101562 70.14648438 C10.16142504 70.13466305 8.28187476 70.11672703 6.40234375 70.09765625 C7.0943154 65.82066092 8.50429984 61.94362526 10.08984375 57.93359375 C10.48369263 56.9227623 10.48369263 56.9227623 10.88549805 55.89151001 C11.72060056 53.75036549 12.56127269 51.61146239 13.40234375 49.47265625 C14.24223613 47.32626461 15.08098206 45.17942932 15.91918945 43.03237915 C16.43992543 41.69968092 16.96185162 40.36744698 17.48510742 39.03573608 C18.51705235 36.40398703 19.50817705 33.78015635 20.40234375 31.09765625 C13.80234375 30.76765625 7.20234375 30.43765625 0.40234375 30.09765625 C0.07234375 31.74765625 -0.25765625 33.39765625 -0.59765625 35.09765625 C-1.02754736 36.37068266 -1.49341435 37.63219208 -1.99633789 38.87817383 C-2.27655289 39.57852249 -2.55676788 40.27887115 -2.84547424 41.0004425 C-3.14654587 41.74021835 -3.44761749 42.4799942 -3.7578125 43.2421875 C-4.06714218 44.01197433 -4.37647186 44.78176117 -4.69517517 45.57487488 C-5.67945093 48.02162391 -6.66970935 50.46589969 -7.66015625 52.91015625 C-8.33047496 54.57340783 -9.00040125 56.23681762 -9.66992188 57.90039062 C-11.30723323 61.96830794 -12.95261929 66.032823 -14.59765625 70.09765625 C-20.20765625 70.09765625 -25.81765625 70.09765625 -31.59765625 70.09765625 C-26.66410596 56.75634127 -21.46913061 43.52463573 -16.2277832 30.30151367 C-15.25561587 27.84765078 -14.28458249 25.39337977 -13.31567383 22.93823242 C-11.90577618 19.36663335 -10.49244108 15.79641385 -9.078125 12.2265625 C-8.64275925 11.12260635 -8.20739349 10.01865021 -7.75883484 8.88124084 C-7.35784073 7.87185959 -6.95684662 6.86247833 -6.54370117 5.82250977 C-6.19095627 4.93145035 -5.83821136 4.04039093 -5.47477722 3.12232971 C-4.00954765 -0.25988497 -4.04672761 0.10984603 0 0 Z " fill="#2A2A2A" transform="translate(443.59765625,99.90234375)"/>
<path d="M0 0 C5.28 0 10.56 0 16 0 C15.175 2.206875 14.35 4.41375 13.5 6.6875 C13.21753418 7.44329346 12.93506836 8.19908691 12.64404297 8.9777832 C11.0559189 13.21560893 9.44765466 17.44503732 7.8203125 21.66796875 C7.45615234 22.61518799 7.09199219 23.56240723 6.71679688 24.53833008 C5.99428719 26.41553044 5.26906625 28.29168972 4.54101562 30.16674805 C4.21037109 31.02695557 3.87972656 31.88716309 3.5390625 32.7734375 C3.24209473 33.54091309 2.94512695 34.30838867 2.63916016 35.09912109 C1.89376329 36.98170755 1.89376329 36.98170755 2 39 C4.75105422 39.10812003 7.49785087 39.18734945 10.25 39.25 C11.41595703 39.30027344 11.41595703 39.30027344 12.60546875 39.3515625 C13.35957031 39.36445313 14.11367187 39.37734375 14.890625 39.390625 C15.92751465 39.4220459 15.92751465 39.4220459 16.98535156 39.45410156 C20.03896827 38.76581665 21.06341783 37.45017226 23 35 C24.34695269 32.39016884 25.40251987 29.69356021 26.453125 26.953125 C26.91075226 25.79632233 26.91075226 25.79632233 27.37762451 24.6161499 C28.34490708 22.16449575 29.29760401 19.70747027 30.25 17.25 C30.9052939 15.5816554 31.56153368 13.91368198 32.21875 12.24609375 C33.82530058 8.16886312 35.41198493 4.08468047 37 0 C42.61 0 48.22 0 54 0 C51.61947369 7.47813609 48.82345811 14.76956025 45.92138672 22.05688477 C45.12632769 24.05915635 44.34244241 26.06558364 43.55859375 28.07226562 C39.86868673 37.41476381 36.40408702 45.97098105 28 52 C22.73167912 53.75610696 17.06199965 53.43390976 11.54125977 53.61254883 C9.33746281 53.68666052 7.13477126 53.77755951 4.93164062 53.86914062 C-8.88874537 54.37531784 -8.88874537 54.37531784 -15 52 C-17.53749278 48.19376083 -17.39770961 46.53855177 -17 42 C-16.07026884 38.78204367 -14.8223756 35.7265049 -13.53515625 32.63671875 C-13.1823912 31.76352493 -12.82962616 30.89033112 -12.46617126 29.99067688 C-11.34290547 27.21820055 -10.20291776 24.4529589 -9.0625 21.6875 C-8.29903708 19.80968886 -7.53665564 17.93143762 -6.77539062 16.05273438 C-1.35318289 2.70636578 -1.35318289 2.70636578 0 0 Z " fill="#118BFA" transform="translate(145,117)"/>
<path d="M0 0 C5.61 0 11.22 0 17 0 C16.40318439 11.73737366 15.40545573 23.33335293 14 35 C14.33620361 34.50822266 14.67240723 34.01644531 15.01879883 33.50976562 C15.49341553 32.81560547 15.96803223 32.12144531 16.45703125 31.40625 C16.98635254 30.62999268 17.51567383 29.85373535 18.06103516 29.05395508 C19.23847117 27.33703869 20.42451096 25.62599408 21.61865234 23.9206543 C24.51407718 19.7644183 27.25958515 15.64790305 29.64453125 11.17578125 C35.43178802 0.74369904 35.43178802 0.74369904 40.32861328 -0.67431641 C45.97625205 -1.36117696 51.39601691 -0.83624204 57 0 C54.1222334 5.31491822 50.85110731 10.00024303 47.125 14.75 C42.84264958 20.27306005 38.61900086 25.82956606 34.49536133 31.47241211 C33.29502637 33.10911461 32.08526443 34.73894712 30.8659668 36.36157227 C28.39567409 39.65449476 26.09745857 42.82647621 24.078125 46.421875 C22.2183352 49.55694924 21.16908527 51.15943956 18 53 C11.05869216 54.13859679 3.97326325 53.61450937 -3 53 C-3.13987017 44.27520963 -2.77199427 35.61847319 -2.20043945 26.91723633 C-2.06201597 24.8051144 -1.92999445 22.69266194 -1.79882812 20.58007812 C-1.36322307 13.69667068 -0.84531429 6.84628417 0 0 Z " fill="#292929" transform="translate(520,117)"/>
<path d="M0 0 C1.1707608 0.0001133 1.1707608 0.0001133 2.36517334 0.00022888 C3.19760559 0.00539017 4.03003784 0.01055145 4.88769531 0.01586914 C5.74768127 0.01728409 6.60766724 0.01869904 7.49371338 0.02015686 C10.2344514 0.02574442 12.97510707 0.03829465 15.71582031 0.05102539 C17.57649621 0.056042 19.4371734 0.06060462 21.29785156 0.06469727 C25.85387277 0.07570978 30.40983259 0.09296588 34.96582031 0.11352539 C34.51385786 1.71949864 34.05399704 3.32325047 33.59082031 4.92602539 C33.20796875 6.26600586 33.20796875 6.26600586 32.81738281 7.63305664 C31.96582031 10.11352539 31.96582031 10.11352539 29.96582031 13.11352539 C27.55493164 13.51416016 27.55493164 13.51416016 24.54785156 13.55493164 C23.45794922 13.58135742 22.36804688 13.6077832 21.24511719 13.63500977 C20.10107422 13.64854492 18.95703125 13.66208008 17.77832031 13.67602539 C7.54919232 13.38980183 7.54919232 13.38980183 -2.03417969 16.11352539 C-4.03220906 19.05387016 -5.24073981 22.16670759 -6.47167969 25.48852539 C-6.82166016 26.35219727 -7.17164063 27.21586914 -7.53222656 28.10571289 C-9.10382124 32.09159686 -10.03417969 34.75879628 -10.03417969 39.11352539 C-0.46417969 39.44352539 9.10582031 39.77352539 18.96582031 40.11352539 C15.96582031 50.11352539 15.96582031 50.11352539 13.96582031 53.11352539 C10.96160868 53.41757991 8.16740645 53.53338831 5.16113281 53.51196289 C4.2856076 53.51483307 3.4100824 53.51770325 2.50802612 53.5206604 C0.65361892 53.52270409 -1.20080968 53.517153 -3.05517578 53.50463867 C-5.89111794 53.48862736 -8.72562656 53.50445689 -11.56152344 53.52368164 C-13.36230783 53.52169851 -15.16309133 53.51785339 -16.96386719 53.51196289 C-17.81189911 53.51803558 -18.65993103 53.52410828 -19.53366089 53.53036499 C-23.02384959 53.4888009 -25.42172267 53.42483408 -28.56542969 51.8269043 C-30.67952922 49.36068912 -30.63888275 47.04027301 -30.4921875 43.88696289 C-29.52208414 38.01256302 -27.14809475 32.60060737 -24.90917969 27.11352539 C-24.43480469 25.89407227 -23.96042969 24.67461914 -23.47167969 23.41821289 C-16.95035617 7.0972789 -16.95035617 7.0972789 -10.40917969 2.11352539 C-6.89276814 0.63293106 -3.81128193 -0.01237429 0 0 Z " fill="#2A2A2A" transform="translate(390.0341796875,116.886474609375)"/>
<path d="M0 0 C5.61 0 11.22 0 17 0 C16.15452964 4.22735179 15.09324328 7.56995031 13.49975586 11.53442383 C13.246017 12.16913605 12.99227814 12.80384827 12.73085022 13.45779419 C11.89626046 15.54253545 11.05560154 17.62477076 10.21484375 19.70703125 C9.63296996 21.15705006 9.05147818 22.60722223 8.47035217 24.05754089 C6.94361929 27.86485121 5.41171899 31.67006143 3.87872314 35.47485352 C2.31380116 39.36153479 0.75378917 43.25018543 -0.80664062 47.13867188 C-3.86629984 54.76104901 -6.93187439 62.38102677 -10 70 C-15.94 70 -21.88 70 -28 70 C-21.86245956 53.74381181 -15.46209306 37.6041177 -8.9375 21.5 C-8.55288605 20.55006165 -8.16827209 19.60012329 -7.77200317 18.62139893 C-6.67091205 15.90332146 -5.56830187 13.1858673 -4.46484375 10.46875 C-4.12983856 9.64277313 -3.79483337 8.81679626 -3.44967651 7.96578979 C-1.11777439 2.23554878 -1.11777439 2.23554878 0 0 Z " fill="#118CFA" transform="translate(125,100)"/>
<path d="M0 0 C0.99 0 1.98 0 3 0 C2.49856609 7.81543086 1.99451883 15.63068851 1.48720646 23.44573975 C1.25167934 27.07523716 1.01702636 30.70478654 0.78442383 34.33447266 C0.55958996 37.84241359 0.33239104 41.35019431 0.10360527 44.85787964 C-0.02482619 46.83621979 -0.15085723 48.81471531 -0.27684021 50.79321289 C-0.35684769 52.01387451 -0.43685516 53.23453613 -0.51928711 54.4921875 C-0.58812607 55.55808105 -0.65696503 56.62397461 -0.72789001 57.72216797 C-1.04086974 61.4923161 -1.5307621 65.24609683 -2 69 C-7.94 69 -13.88 69 -20 69 C-19.67 63.72 -19.34 58.44 -19 53 C-23.62 53 -28.24 53 -33 53 C-30.36 48.38 -27.72 43.76 -25 39 C-22.36 39 -19.72 39 -17 39 C-17.06703125 38.20980469 -17.1340625 37.41960937 -17.203125 36.60546875 C-17.36417062 24.86255905 -12.01201348 17.37419914 -5.42724609 8.05078125 C-4.14870559 6.21367207 -2.97282012 4.34310913 -1.80078125 2.4375 C-0.90939453 1.2309375 -0.90939453 1.2309375 0 0 Z " fill="#2A2A2A" transform="translate(315,101)"/>
<path d="M0 0 C1.06992187 0.01353516 2.13984375 0.02707031 3.2421875 0.04101562 C5.87031511 0.07621376 8.49739194 0.12545307 11.125 0.1875 C10.67303755 1.79347325 10.21317673 3.39722508 9.75 5 C9.36714844 6.33998047 9.36714844 6.33998047 8.9765625 7.70703125 C8.125 10.1875 8.125 10.1875 6.125 13.1875 C2.8743511 13.61766773 -0.33738261 13.75563982 -3.61328125 13.87890625 C-8.04065081 15.65515631 -8.75894589 17.83956239 -10.63110352 22.0925293 C-11.04158936 23.11386963 -11.4520752 24.13520996 -11.875 25.1875 C-12.34284912 26.32421143 -12.81069824 27.46092285 -13.29272461 28.63208008 C-14.79261582 32.34622629 -16.24647267 36.0752987 -17.6875 39.8125 C-18.1942222 41.11605625 -18.70138097 42.41944288 -19.20898438 43.72265625 C-20.4352635 46.87594542 -21.65573097 50.03149364 -22.875 53.1875 C-28.815 53.1875 -34.755 53.1875 -40.875 53.1875 C-31.33077821 27.87966599 -31.33077821 27.87966599 -26.5625 16.9375 C-26.26214844 16.23125488 -25.96179688 15.52500977 -25.65234375 14.79736328 C-23.16981915 9.22121016 -20.33674616 4.9720789 -15.3046875 1.32421875 C-10.20319372 -0.36659525 -5.3328615 -0.12806749 0 0 Z " fill="#292929" transform="translate(359.875,116.8125)"/>
<path d="M0 0 C5.61 0 11.22 0 17 0 C16.26232646 3.68836771 15.53648025 6.46162083 14.15820312 9.86621094 C13.59256653 11.27226593 13.59256653 11.27226593 13.01550293 12.70672607 C12.40454773 14.20541229 12.40454773 14.20541229 11.78125 15.734375 C11.36331177 16.7681427 10.94537354 17.8019104 10.51477051 18.86700439 C9.63254538 21.04646197 8.7481778 23.22505335 7.86181641 25.40283203 C6.50020575 28.74949429 5.1460764 32.09911085 3.79296875 35.44921875 C2.93533553 37.56528243 2.07727737 39.68117394 1.21875 41.796875 C0.81144653 42.80409607 0.40414307 43.81131714 -0.01550293 44.84906006 C-0.39259399 45.77382141 -0.76968506 46.69858276 -1.15820312 47.65136719 C-1.49049927 48.4690155 -1.82279541 49.28666382 -2.16516113 50.12908936 C-3 52 -3 52 -4 53 C-6.69654854 53.07319621 -9.36691458 53.09242537 -12.0625 53.0625 C-13.20041992 53.05573242 -13.20041992 53.05573242 -14.36132812 53.04882812 C-16.24091871 53.0370068 -18.12046899 53.01907078 -20 53 C-19.38333027 49.4834947 -18.46282569 46.34046978 -17.14233398 43.02612305 C-16.76201523 42.06550461 -16.38169647 41.10488617 -15.98985291 40.11515808 C-15.57941238 39.0910231 -15.16897186 38.06688812 -14.74609375 37.01171875 C-14.32578384 35.95338333 -13.90547394 34.89504791 -13.47242737 33.80464172 C-12.13142203 30.43066551 -10.78454284 27.0590697 -9.4375 23.6875 C-8.52630437 21.39794097 -7.61549251 19.10822917 -6.70507812 16.81835938 C-4.47449831 11.21045836 -2.23864827 5.60468474 0 0 Z " fill="#292929" transform="translate(496,117)"/>
<path d="M0 0 C0.66 0.33 1.32 0.66 2 1 C1.52804199 1.91362305 1.05608398 2.82724609 0.56982422 3.76855469 C-1.66401317 8.09455463 -3.89505894 12.42199046 -6.125 16.75 C-6.52961456 17.53522034 -6.93422913 18.32044067 -7.35110474 19.12945557 C-13.55020406 31.16681867 -19.66669087 43.24192457 -25.67041016 55.37792969 C-26.20069824 56.44688477 -26.73098633 57.51583984 -27.27734375 58.6171875 C-27.73359131 59.54128418 -28.18983887 60.46538086 -28.65991211 61.41748047 C-29.10214111 62.26971191 -29.54437012 63.12194336 -30 64 C-30.46390137 64.92594971 -30.92780273 65.85189941 -31.40576172 66.8059082 C-33 69 -33 69 -34.99291992 69.56762695 C-36.10050659 69.52835083 -36.10050659 69.52835083 -37.23046875 69.48828125 C-38.43413086 69.46411133 -38.43413086 69.46411133 -39.66210938 69.43945312 C-40.49548828 69.39755859 -41.32886719 69.35566406 -42.1875 69.3125 C-43.4549707 69.27866211 -43.4549707 69.27866211 -44.74804688 69.24414062 C-46.83278798 69.18524963 -48.91661804 69.09556798 -51 69 C-46.89481098 62.68996357 -42.55026615 56.62021417 -38 50.625 C-36.66730896 48.85857051 -35.33529361 47.09163105 -34.00390625 45.32421875 C-33.00061279 43.99269775 -33.00061279 43.99269775 -31.97705078 42.63427734 C-28.93931369 38.58671212 -25.93573724 34.51437137 -22.9375 30.4375 C-22.37321289 29.67074951 -21.80892578 28.90399902 -21.22753906 28.11401367 C-18.17523077 23.96421206 -15.12798774 19.8107152 -12.08203125 15.65625 C-11.44080322 14.78299072 -10.7995752 13.90973145 -10.13891602 13.01000977 C-8.90482833 11.32930899 -7.67218001 9.64755012 -6.44116211 7.96459961 C-5.88823486 7.21186768 -5.33530762 6.45913574 -4.765625 5.68359375 C-4.27868164 5.01900146 -3.79173828 4.35440918 -3.29003906 3.66967773 C-2 2 -2 2 0 0 Z " fill="#292929" transform="translate(295,101)"/>
<path d="M0 0 C0.66 0.33 1.32 0.66 2 1 C2 1.66 2 2.32 2 3 C1.21625 3.226875 0.4325 3.45375 -0.375 3.6875 C-3.11528893 4.770005 -3.11528893 4.770005 -4.3125 7.125 C-5.65625584 12.7443426 -5.7843461 17.04940874 -3.25 22.25 C6.56036836 38.11009552 23.83936023 47.72770707 40 56 C39.67 56.99 39.34 57.98 39 59 C19.79697395 49.7237578 -2.80584464 38.44057753 -12 18 C-13.20643566 14.38069302 -13.32268559 11.80768995 -13 8 C-9.83348916 2.119337 -6.95765932 -2.19715557 0 0 Z " fill="#292A2A" transform="translate(252,42)"/>
<path d="M0 0 C6.84760044 1.8210654 12.95971488 4.19341342 19.1875 7.5625 C20.00484619 8.00086182 20.82219238 8.43922363 21.66430664 8.89086914 C37.9789559 17.78442587 58.13666607 29.73528075 65 48 C65.25 51 65.25 51 65 53 C62.15511616 52.23406973 60.35082311 51.69609825 58 50 C57.03125 47.99609375 57.03125 47.99609375 56.25 45.5625 C51.89193062 32.98269467 39.68620226 24.96980639 29 18 C28.14664062 17.43667969 27.29328125 16.87335938 26.4140625 16.29296875 C17.85656692 10.90544246 8.4132457 6.65771833 -1 3 C-0.67 2.01 -0.34 1.02 0 0 Z " fill="#29292A" transform="translate(337,52)"/>
<path d="M0 0 C0 0.99 0 1.98 0 3 C-5.71605177 2.37253515 -10.85037273 0.88110214 -16.3125 -0.875 C-32.71144407 -5.88055253 -47.79656146 -7.37641386 -64.89599609 -6.89013672 C-66.14461426 -6.8645166 -67.39323242 -6.83889648 -68.6796875 -6.8125 C-70.36167236 -6.76029297 -70.36167236 -6.76029297 -72.07763672 -6.70703125 C-75.32715974 -7.03279797 -76.63705833 -7.80886942 -79 -10 C-54.36953843 -18.46989737 -23.52473007 -8.01979434 0 0 Z " fill="#2A2A2B" transform="translate(332,49)"/>
<path d="M0 0 C5.61 0 11.22 0 17 0 C14.125 8.75 14.125 8.75 13 11 C7.39 11 1.78 11 -4 11 C-1.125 2.25 -1.125 2.25 0 0 Z " fill="#292929" transform="translate(502,103)"/>
<path d="M0 0 C2.31 0.66 4.62 1.32 7 2 C6.67 3.98 6.34 5.96 6 8 C2.7 8 -0.6 8 -4 8 C-2.68 5.36 -1.36 2.72 0 0 Z " fill="#292A2B" transform="translate(395,104)"/>
<path d="" fill="#0883FF" transform="translate(0,0)"/>
</svg>
